<svg width="212.000000" height="57.000000" viewBox="0 0 212 57" fill="none" xmlns="http://www.w3.org/2000/svg" xmlns:xlink="http://www.w3.org/1999/xlink">
	<desc>
			Created with Pixso.
	</desc>
	<defs/>
	<path id="Vector" d="M170.51 32.97L162.6 21.98C161.4 22.12 160.34 22.19 159.35 22.19L149.88 22.19L149.88 32.97L147.48 32.97L147.48 0.07L159.35 0.07C163.52 0.07 166.77 1.05 169.17 3.01C171.57 4.97 172.7 7.7 172.7 11.13C172.7 13.72 172 15.89 170.65 17.71C169.31 19.46 167.4 20.72 164.86 21.42L173.13 32.9L170.51 32.9L170.51 32.97ZM159.35 20.09C162.88 20.09 165.57 19.32 167.47 17.78C169.38 16.24 170.3 14 170.3 11.2C170.3 8.4 169.38 6.16 167.47 4.62C165.57 3.08 162.88 2.31 159.35 2.31L149.88 2.31L149.88 20.16L159.35 20.16L159.35 20.09Z" fill="#1588F1" fill-opacity="1.000000" fill-rule="nonzero"/>
	<path id="Vector" d="M32.01 0.07L17.24 32.97L14.76 32.97L0 0.07L2.68 0.07L16.11 29.89L29.46 0.07L32.01 0.07Z" fill="#1588F1" fill-opacity="1.000000" fill-rule="nonzero"/>
	<path id="Vector" d="M66.35 17.29L84.02 17.29L84.02 15.19L63.88 15.19L63.88 32.97L86.77 32.97L86.77 30.8L66.28 30.8L66.28 17.29L66.35 17.29ZM63.95 0.07L63.95 2.24L86.84 2.24L86.84 0.07L63.95 0.07Z" fill="#FFFFFF" fill-opacity="1.000000" fill-rule="nonzero"/>
	<path id="Vector" d="M189.1 0.07L189.1 2.24L212 2.24L212 0.07L189.1 0.07ZM191.5 30.8L191.5 17.29L209.17 17.29L209.17 15.19L189.03 15.19L189.03 32.97L212 32.97L212 30.8L191.5 30.8Z" fill="#FFFFFF" fill-opacity="1.000000" fill-rule="nonzero"/>
	<path id="Vector" d="M45.51 0.07L32.08 29.81L26.64 17.84L25.37 20.78L30.81 32.89L33.21 32.89L47.98 0L45.51 0L45.51 0.07Z" fill="#FFFFFF" fill-opacity="1.000000" fill-rule="nonzero"/>
	<path id="Vector" d="M7.27 50.67C7.27 51.37 6.99 51.93 6.43 52.35C5.86 52.77 5.08 52.91 3.95 52.91L0 52.91L0 44.65L3.88 44.65C4.87 44.65 5.65 44.86 6.21 45.22C6.78 45.56 7.06 46.12 7.06 46.76C7.06 47.17 6.92 47.59 6.71 47.87C6.5 48.15 6.14 48.43 5.72 48.57C6.71 49 7.27 49.62 7.27 50.67ZM1.48 48.29L3.74 48.29C4.31 48.29 4.73 48.23 5.08 48.01C5.37 47.8 5.51 47.52 5.51 47.1C5.51 46.33 4.94 45.91 3.74 45.91L1.48 45.91L1.48 48.29ZM5.29 51.51C5.58 51.3 5.79 51.02 5.79 50.6C5.79 50.18 5.65 49.83 5.37 49.62C5.08 49.41 4.66 49.34 4.02 49.34L1.55 49.34L1.55 51.79L3.95 51.79C4.52 51.79 5.01 51.73 5.29 51.51Z" fill="#FFFFFF" fill-opacity="1.000000" fill-rule="nonzero"/>
	<path id="Vector" d="M9.32 44.73L10.81 44.73L10.81 50.75L15.9 44.73L17.24 44.73L17.24 52.99L15.75 52.99L15.75 46.97L10.67 52.99L9.25 52.99L9.25 44.73L9.32 44.73Z" fill="#FFFFFF" fill-opacity="1.000000" fill-rule="nonzero"/>
	<path id="Vector" d="M26.14 45.21C26.78 45.56 27.27 46.05 27.63 46.68C27.98 47.31 28.19 48.01 28.19 48.85C28.19 49.69 27.98 50.39 27.63 51.02C27.27 51.65 26.78 52.14 26.14 52.49C25.51 52.84 24.8 53.05 23.95 53.05C23.39 53.05 22.82 52.91 22.33 52.7C21.83 52.49 21.41 52.14 21.05 51.72L21.05 55.99L19.57 55.99L19.57 44.72L20.98 44.72L20.98 46.05C21.34 45.63 21.76 45.28 22.26 45C22.75 44.79 23.32 44.65 23.95 44.65C24.73 44.65 25.51 44.86 26.14 45.21ZM25.29 51.37C25.72 51.16 26.07 50.81 26.28 50.32C26.5 49.9 26.64 49.34 26.64 48.78C26.64 48.22 26.5 47.73 26.28 47.24C26.07 46.82 25.72 46.47 25.29 46.19C24.87 45.98 24.38 45.84 23.88 45.84C23.39 45.84 22.89 45.98 22.47 46.19C22.04 46.4 21.69 46.75 21.48 47.24C21.27 47.66 21.13 48.15 21.13 48.78C21.13 49.34 21.27 49.83 21.48 50.32C21.69 50.74 22.04 51.09 22.47 51.37C22.89 51.65 23.39 51.72 23.88 51.72C24.38 51.72 24.87 51.65 25.29 51.37Z" fill="#FFFFFF" fill-opacity="1.000000" fill-rule="nonzero"/>
	<path id="Vector" d="M36.18 46.06L33.14 46.06L33.14 52.99L31.65 52.99L31.65 46.06L28.61 46.06L28.61 44.73L36.18 44.73L36.18 46.06Z" fill="#FFFFFF" fill-opacity="1.000000" fill-rule="nonzero"/>
	<path id="Vector" d="M46.42 44.73L42.4 53.76C42.04 54.6 41.62 55.16 41.12 55.51C40.63 55.86 40.06 56 39.43 56C39 56 38.65 55.93 38.23 55.79C37.87 55.65 37.52 55.44 37.31 55.23L37.94 54.11C38.37 54.53 38.86 54.74 39.43 54.74C39.78 54.74 40.06 54.67 40.35 54.46C40.56 54.25 40.84 53.97 40.98 53.48L41.27 52.92L37.59 44.73L39.14 44.73L42.04 51.31L44.94 44.73L46.42 44.73Z" fill="#FFFFFF" fill-opacity="1.000000" fill-rule="nonzero"/>
	<path id="Vector" d="M53.63 45.49C54.27 46.05 54.55 46.89 54.55 48.01L54.55 52.98L53.14 52.98L53.14 51.86C52.85 52.21 52.5 52.56 52.08 52.77C51.58 52.98 51.09 53.05 50.45 53.05C49.53 53.05 48.76 52.84 48.19 52.35C47.63 51.93 47.34 51.3 47.34 50.6C47.34 49.9 47.63 49.27 48.12 48.85C48.69 48.43 49.53 48.22 50.66 48.22L53.07 48.22L53.07 47.94C53.07 47.31 52.85 46.82 52.5 46.47C52.15 46.12 51.58 45.98 50.81 45.98C50.31 45.98 49.82 46.05 49.39 46.19C48.9 46.33 48.54 46.54 48.19 46.82L47.55 45.7C47.98 45.35 48.47 45.07 49.11 44.93C49.75 44.79 50.31 44.65 51.02 44.65C52.15 44.65 53 44.93 53.63 45.49ZM52.15 51.51C52.57 51.23 52.85 50.88 53.07 50.46L53.07 49.34L50.73 49.34C49.46 49.34 48.83 49.76 48.83 50.6C48.83 51.02 48.97 51.37 49.32 51.58C49.67 51.79 50.1 51.93 50.66 51.93C51.23 51.93 51.72 51.79 52.15 51.51Z" fill="#FFFFFF" fill-opacity="1.000000" fill-rule="nonzero"/>
	<path id="Vector" d="M64.09 44.73L64.09 52.99L62.6 52.99L62.6 46.06L59 46.06L58.93 47.88C58.86 49 58.79 49.91 58.65 50.68C58.51 51.45 58.29 52.01 57.94 52.43C57.59 52.85 57.16 53.13 56.53 53.13C56.25 53.13 55.96 53.06 55.61 52.99L55.68 51.73C55.82 51.73 55.96 51.8 56.03 51.8C56.46 51.8 56.74 51.59 56.95 51.24C57.16 50.89 57.3 50.47 57.38 49.98C57.45 49.49 57.52 48.79 57.52 47.88L57.66 44.87L64.09 44.87L64.09 44.73Z" fill="#FFFFFF" fill-opacity="1.000000" fill-rule="nonzero"/>
	<path id="Vector" d="M72.92 48.22C73.49 48.71 73.77 49.34 73.77 50.18C73.77 51.09 73.49 51.72 72.85 52.21C72.22 52.7 71.37 52.91 70.31 52.91L66.7 52.91L66.7 44.65L68.19 44.65L68.19 47.45L70.52 47.45C71.58 47.52 72.36 47.8 72.92 48.22ZM71.72 51.44C72.07 51.16 72.22 50.74 72.22 50.18C72.22 49.62 72.07 49.27 71.72 48.99C71.37 48.71 70.87 48.64 70.17 48.57L68.19 48.57L68.19 51.79L70.17 51.79C70.8 51.86 71.37 51.72 71.72 51.44Z" fill="#FFFFFF" fill-opacity="1.000000" fill-rule="nonzero"/>
	<path id="Vector" d="M75.68 44.73L77.16 44.73L77.16 48.23L81.9 48.23L81.9 44.73L83.38 44.73L83.38 52.99L81.9 52.99L81.9 49.56L77.16 49.56L77.16 52.99L75.68 52.99L75.68 44.73Z" fill="#FFFFFF" fill-opacity="1.000000" fill-rule="nonzero"/>
	<path id="Vector" d="M91.93 45.49C92.57 46.05 92.85 46.89 92.85 48.01L92.85 52.98L91.44 52.98L91.44 51.86C91.15 52.21 90.8 52.56 90.38 52.77C89.88 52.98 89.39 53.05 88.75 53.05C87.83 53.05 87.06 52.84 86.49 52.35C85.93 51.93 85.64 51.3 85.64 50.6C85.64 49.9 85.93 49.27 86.42 48.85C86.91 48.43 87.83 48.22 88.96 48.22L91.37 48.22L91.37 47.94C91.37 47.31 91.15 46.82 90.8 46.47C90.45 46.12 89.88 45.98 89.1 45.98C88.61 45.98 88.12 46.05 87.69 46.19C87.2 46.33 86.84 46.54 86.49 46.82L85.85 45.7C86.28 45.35 86.77 45.07 87.41 44.93C87.97 44.72 88.61 44.65 89.32 44.65C90.45 44.65 91.37 44.93 91.93 45.49ZM90.45 51.51C90.87 51.23 91.15 50.88 91.37 50.46L91.37 49.34L89.03 49.34C87.76 49.34 87.13 49.76 87.13 50.6C87.13 51.02 87.27 51.37 87.62 51.58C87.97 51.79 88.4 51.93 88.96 51.93C89.53 51.93 90.02 51.79 90.45 51.51Z" fill="#FFFFFF" fill-opacity="1.000000" fill-rule="nonzero"/>
	<path id="Vector" d="M102.25 44.73L102.25 52.99L100.91 52.99L100.91 50.4L98.5 50.4L98.36 50.4L96.53 52.99L94.9 52.99L96.95 50.19C96.31 49.98 95.82 49.7 95.54 49.28C95.18 48.86 95.04 48.3 95.04 47.67C95.04 46.76 95.39 45.99 96.03 45.5C96.67 45.01 97.59 44.73 98.72 44.73L102.25 44.73ZM97.02 48.86C97.37 49.14 97.87 49.28 98.58 49.28L100.91 49.28L100.91 46.06L98.65 46.06C97.23 46.06 96.46 46.62 96.46 47.67C96.46 48.23 96.67 48.65 97.02 48.86Z" fill="#FFFFFF" fill-opacity="1.000000" fill-rule="nonzero"/>
	<path id="Vector" d="M114.97 45.49C115.61 46.05 115.89 46.89 115.89 48.01L115.89 52.98L114.48 52.98L114.48 51.86C114.19 52.21 113.84 52.56 113.42 52.77C112.92 52.98 112.43 53.05 111.79 53.05C110.87 53.05 110.1 52.84 109.53 52.35C108.96 51.93 108.68 51.3 108.68 50.6C108.68 49.9 108.96 49.27 109.46 48.85C109.95 48.43 110.87 48.22 112 48.22L114.41 48.22L114.41 47.94C114.41 47.31 114.19 46.82 113.84 46.47C113.49 46.12 112.92 45.98 112.14 45.98C111.65 45.98 111.15 46.05 110.73 46.19C110.24 46.33 109.88 46.54 109.53 46.82L108.89 45.7C109.32 45.35 109.81 45.07 110.45 44.93C111.01 44.72 111.65 44.65 112.36 44.65C113.49 44.65 114.41 44.93 114.97 45.49ZM113.49 51.51C113.91 51.23 114.19 50.88 114.41 50.46L114.41 49.34L112.07 49.34C110.8 49.34 110.17 49.76 110.17 50.6C110.17 51.02 110.31 51.37 110.66 51.58C111.01 51.79 111.44 51.93 112 51.93C112.57 51.93 113.06 51.79 113.49 51.51Z" fill="#FFFFFF" fill-opacity="1.000000" fill-rule="nonzero"/>
	<path id="Vector" d="M124.86 45.21C125.5 45.56 125.99 46.05 126.35 46.68C126.7 47.31 126.91 48.01 126.91 48.85C126.91 49.69 126.7 50.39 126.35 51.02C125.99 51.65 125.5 52.14 124.86 52.49C124.23 52.84 123.52 53.05 122.67 53.05C122.11 53.05 121.54 52.91 121.05 52.7C120.55 52.49 120.13 52.14 119.78 51.72L119.78 55.99L118.29 55.99L118.29 44.72L119.71 44.72L119.71 46.05C120.06 45.63 120.48 45.28 120.98 45C121.47 44.79 122.04 44.65 122.67 44.65C123.52 44.65 124.23 44.86 124.86 45.21ZM124.02 51.37C124.44 51.16 124.79 50.81 125.01 50.32C125.22 49.9 125.36 49.34 125.36 48.78C125.36 48.22 125.22 47.73 125.01 47.24C124.79 46.82 124.44 46.47 124.02 46.19C123.59 45.98 123.1 45.84 122.6 45.84C122.11 45.84 121.61 45.98 121.19 46.19C120.77 46.4 120.41 46.75 120.2 47.24C119.99 47.66 119.85 48.15 119.85 48.78C119.85 49.34 119.99 49.83 120.2 50.32C120.41 50.74 120.77 51.09 121.19 51.37C121.61 51.65 122.11 51.72 122.6 51.72C123.1 51.72 123.59 51.65 124.02 51.37Z" fill="#FFFFFF" fill-opacity="1.000000" fill-rule="nonzero"/>
	<path id="Vector" d="M134.26 52.99L131.86 49.84L129.46 52.99L127.76 52.99L131.01 48.79L127.9 44.8L129.6 44.8L131.86 47.74L134.12 44.8L135.75 44.8L132.64 48.79L135.96 52.99L134.26 52.99Z" fill="#FFFFFF" fill-opacity="1.000000" fill-rule="nonzero"/>
	<path id="Vector" d="M137.87 44.73L139.35 44.73L139.35 50.75L144.44 44.73L145.78 44.73L145.78 52.99L144.3 52.99L144.3 46.97L139.21 52.99L137.8 52.99L137.8 44.73L137.87 44.73Z" fill="#FFFFFF" fill-opacity="1.000000" fill-rule="nonzero"/>
	<path id="Vector" d="M155.25 46.06L152.21 46.06L152.21 52.99L150.73 52.99L150.73 46.06L147.69 46.06L147.69 44.73L155.25 44.73L155.25 46.06Z" fill="#FFFFFF" fill-opacity="1.000000" fill-rule="nonzero"/>
	<path id="Vector" d="M164.23 49.34L157.51 49.34C157.58 50.04 157.94 50.67 158.5 51.09C159.07 51.51 159.7 51.72 160.55 51.72C161.54 51.72 162.32 51.37 162.95 50.74L163.8 51.72C163.45 52.14 162.95 52.49 162.39 52.7C161.82 52.91 161.19 53.05 160.55 53.05C159.7 53.05 158.92 52.84 158.22 52.49C157.51 52.14 157.02 51.65 156.66 51.02C156.31 50.39 156.1 49.62 156.1 48.85C156.1 48.08 156.31 47.31 156.66 46.68C157.02 46.05 157.51 45.56 158.15 45.21C158.78 44.86 159.49 44.65 160.27 44.65C161.05 44.65 161.75 44.86 162.39 45.21C163.02 45.56 163.52 46.05 163.87 46.68C164.23 47.31 164.37 48.08 164.37 48.85C164.3 48.99 164.3 49.13 164.23 49.34ZM158.36 46.54C157.87 46.96 157.58 47.52 157.51 48.22L162.81 48.22C162.74 47.52 162.46 46.96 161.96 46.54C161.47 46.12 160.9 45.91 160.13 45.91C159.42 45.91 158.85 46.12 158.36 46.54Z" fill="#FFFFFF" fill-opacity="1.000000" fill-rule="nonzero"/>
	<path id="Vector" d="M169.52 49.49L167.83 49.49L167.83 52.99L166.34 52.99L166.34 44.73L167.83 44.73L167.83 48.23L169.6 48.23L172.28 44.73L173.91 44.73L170.73 48.72L174.12 52.99L172.35 52.99L169.52 49.49Z" fill="#FFFFFF" fill-opacity="1.000000" fill-rule="nonzero"/>
	<path id="Vector" d="M182.95 46.06L179.91 46.06L179.91 52.99L178.43 52.99L178.43 46.06L175.39 46.06L175.39 44.73L182.95 44.73L182.95 46.06Z" fill="#FFFFFF" fill-opacity="1.000000" fill-rule="nonzero"/>
	<path id="Vector" d="M193.2 44.73L189.17 53.76C188.82 54.6 188.39 55.16 187.9 55.51C187.4 55.86 186.84 56 186.2 56C185.78 56 185.42 55.93 185 55.79C184.65 55.65 184.29 55.44 184.08 55.23L184.72 54.11C185.14 54.53 185.64 54.74 186.2 54.74C186.55 54.74 186.84 54.67 187.12 54.46C187.33 54.25 187.61 53.97 187.76 53.48L188.04 52.92L184.36 44.73L185.92 44.73L188.82 51.31L191.71 44.73L193.2 44.73Z" fill="#FFFFFF" fill-opacity="1.000000" fill-rule="nonzero"/>
	<path id="Vector" d="M201.33 45.21C201.96 45.56 202.46 46.05 202.81 46.68C203.16 47.31 203.37 48.01 203.37 48.85C203.37 49.69 203.16 50.39 202.81 51.02C202.46 51.65 201.96 52.14 201.33 52.49C200.69 52.84 199.98 53.05 199.13 53.05C198.57 53.05 198 52.91 197.51 52.7C197.01 52.49 196.59 52.14 196.24 51.72L196.24 55.99L194.75 55.99L194.75 44.72L196.17 44.72L196.17 46.05C196.52 45.63 196.94 45.28 197.44 45C197.93 44.79 198.5 44.65 199.13 44.65C199.98 44.65 200.69 44.86 201.33 45.21ZM200.48 51.37C200.9 51.16 201.25 50.81 201.47 50.32C201.68 49.9 201.82 49.34 201.82 48.78C201.82 48.22 201.68 47.73 201.47 47.24C201.25 46.82 200.9 46.47 200.48 46.19C200.05 45.98 199.56 45.84 199.06 45.84C198.57 45.84 198.07 45.98 197.65 46.19C197.23 46.4 196.87 46.75 196.66 47.24C196.45 47.66 196.31 48.15 196.31 48.78C196.31 49.34 196.45 49.83 196.66 50.32C196.87 50.74 197.23 51.09 197.65 51.37C198.07 51.65 198.57 51.72 199.06 51.72C199.56 51.72 200.05 51.65 200.48 51.37Z" fill="#FFFFFF" fill-opacity="1.000000" fill-rule="nonzero"/>
	<path id="Vector" d="M211.08 45.49C211.71 46.05 211.99 46.89 211.99 48.01L211.99 52.98L210.58 52.98L210.58 51.86C210.3 52.21 209.95 52.56 209.52 52.77C209.03 52.98 208.53 53.05 207.9 53.05C206.98 53.05 206.2 52.84 205.63 52.35C205.07 51.93 204.79 51.3 204.79 50.6C204.79 49.9 205.07 49.27 205.56 48.85C206.06 48.43 206.98 48.22 208.11 48.22L210.51 48.22L210.51 47.94C210.51 47.31 210.3 46.82 209.95 46.47C209.59 46.12 209.03 45.98 208.25 45.98C207.75 45.98 207.26 46.05 206.84 46.19C206.34 46.33 205.99 46.54 205.63 46.82L205 45.7C205.42 45.35 205.92 45.07 206.55 44.93C207.12 44.72 207.75 44.65 208.46 44.65C209.59 44.65 210.44 44.93 211.08 45.49ZM209.59 51.51C210.02 51.23 210.3 50.88 210.51 50.46L210.51 49.34L208.18 49.34C206.91 49.34 206.27 49.76 206.27 50.6C206.27 51.02 206.41 51.37 206.77 51.58C207.12 51.79 207.54 51.93 208.11 51.93C208.67 51.93 209.17 51.79 209.59 51.51Z" fill="#FFFFFF" fill-opacity="1.000000" fill-rule="nonzero"/>
	<path id="Vector" d="M131.01 32.97L133.63 32.97L118.36 0.07L115.89 0.07L100.63 32.97L103.24 32.97L108.19 22.19L126.07 22.19L131.01 32.97ZM109.18 20.09L117.09 2.73L125.08 20.09L109.18 20.09Z" fill="#FFFFFF" fill-opacity="1.000000" fill-rule="nonzero"/>
</svg>
