<svg width="65.000000" height="64.000000" viewBox="0 0 65 64" fill="none" xmlns="http://www.w3.org/2000/svg" xmlns:xlink="http://www.w3.org/1999/xlink">
	<desc>
			Created with Pixso.
	</desc>
	<defs>
		<clipPath id="clip138_4569">
			<rect id="pricing 1" width="56.000778" height="56.000778" transform="translate(4.000000 3.999084)" fill="white" fill-opacity="0"/>
		</clipPath>
		<linearGradient id="paint_linear_138_4568_0" x1="60.001003" y1="28.561369" x2="4.000000" y2="28.561369" gradientUnits="userSpaceOnUse">
			<stop stop-color="#9281CE"/>
			<stop offset="1.000000" stop-color="#68DBFF"/>
		</linearGradient>
	</defs>
	<rect id="icon / price" width="64.000999" height="64.000000" fill="#FFFFFF" fill-opacity="0"/>
	<path id="icon / price" d="M14.9016 26.4L8.66675 26.4C6.09033 26.3968 4.00317 24.3091 4 21.7333L4 8.66666C4.00317 6.09042 6.09033 4.0032 8.66675 4L27.3333 4C29.9097 4.0032 31.9968 6.09042 32 8.66666L32 21.7333C31.9968 24.3091 29.9097 26.3968 27.3333 26.4L21.939 26.4L22.6479 29.9465C22.6606 30.0089 22.667 30.0716 22.667 30.1337C22.667 30.4462 22.5098 30.7431 22.2402 30.9172C22.0889 31.0143 21.9128 31.0662 21.7334 31.0667C21.5388 31.0667 21.3491 31.0056 21.1909 30.8922L14.9016 26.4ZM58.1279 6.69736L59.9946 23.4974C59.9985 23.5315 60.0002 23.5657 60.0002 23.5996C60.0002 23.8458 59.9028 24.0836 59.7268 24.2598L58.2183 25.7678L59.9358 33.816C59.9797 34.0282 60.001 34.2417 60.001 34.4534C60.001 35.3726 59.5984 36.2589 58.8794 36.8648C57.9944 37.6104 56.7727 37.8114 55.6953 37.3885C54.6184 36.9655 53.8596 35.9866 53.7188 34.8382L53.126 30.8601L52.26 31.7265L50.9402 30.4067L52.7847 28.5623L52.3926 25.9278C52.3577 25.9993 52.313 26.0663 52.26 26.1265L49.46 28.9265L48.1401 27.6067L50.2803 25.4666L38.5334 13.7197L34.5266 17.7265L33.2068 16.4067L37.8735 11.74C38.238 11.3754 38.8289 11.3754 39.1934 11.74L52.2253 24.7684L50.7817 15.0618C49.5947 14.6912 48.8066 13.5935 48.8066 12.3787C48.8066 12.2552 48.8149 12.1305 48.8315 12.0052C49.0125 10.6472 50.145 9.61722 51.5134 9.56525C52.8826 9.51376 54.0898 10.4553 54.3723 11.7956C54.4136 11.9904 54.4333 12.1854 54.4333 12.378C54.4333 13.5103 53.7466 14.5584 52.6584 14.9907L54.4321 26.9199L58.0942 23.2572L56.3601 7.64435L40.7429 5.91031L34.5266 12.1265L33.2068 10.8067L39.7402 4.27335C39.9412 4.07419 40.2214 3.97574 40.5027 4.00537L57.3027 5.87204C57.7371 5.91989 58.0796 6.26303 58.1279 6.69736ZM8.66675 5.86667C7.12036 5.86667 5.8667 7.12039 5.8667 8.66666L5.8667 21.7333C5.8667 23.2796 7.12036 24.5334 8.66675 24.5334L15.2 24.5334C15.394 24.5347 15.5828 24.5971 15.7395 24.7115L20.3521 28.006L19.8853 25.6531C19.8728 25.5911 19.8665 25.5286 19.8665 25.4664C19.8665 25.2533 19.9395 25.0443 20.0767 24.876C20.2542 24.6591 20.5198 24.5334 20.8 24.5334L27.3333 24.5334C28.8796 24.5334 30.1333 23.2796 30.1333 21.7333L30.1333 8.66666C30.1333 7.12039 28.8796 5.86667 27.3333 5.86667L8.66675 5.86667ZM28.2668 22.6665L8.66675 22.6665C8.15137 22.6665 7.7334 22.2486 7.7334 21.7332L7.7334 8.66653L9.6001 8.66653L9.6001 15.1999L10.7202 13.7064C10.9038 13.4831 11.1777 13.3537 11.4668 13.3537C11.7556 13.3537 12.0295 13.4831 12.2131 13.7064L14.2222 16.3852L17.2234 11.8808C17.3867 11.636 17.656 11.4825 17.9495 11.4665C18.2456 11.4488 18.5315 11.5754 18.7178 11.806L22.5117 16.3611L26.5176 9.15189L28.1492 10.0569L23.4824 18.4569C23.333 18.7263 23.061 18.904 22.7546 18.9332C22.7251 18.935 22.6958 18.935 22.6667 18.9332C22.3896 18.9327 22.1272 18.8102 21.949 18.5982L18.083 13.9576L15.0432 18.5176C14.8752 18.7701 14.595 18.925 14.2917 18.9332C13.9915 18.9318 13.7075 18.7946 13.5203 18.5599L11.4668 15.8224L9.6001 18.3107L9.6001 20.7999L28.2668 20.7999L28.2668 22.6665ZM52.5334 12.3999C52.5334 11.8845 52.1155 11.4666 51.6001 11.4666C51.0847 11.4666 50.6667 11.8845 50.6667 12.3999C50.6667 12.9153 51.0847 13.3332 51.6001 13.3332C52.1155 13.3332 52.5334 12.9153 52.5334 12.3999ZM46.4294 52.4157C43.875 54.3092 40.7798 55.3319 37.6001 55.3333C30.8047 55.3401 24.8633 50.7541 23.1489 44.1788C22.8223 42.9263 22.6646 41.6618 22.6646 40.4125C22.6646 35.1035 25.5103 30.0689 30.314 27.3879C36.2476 24.0761 43.6694 25.1927 48.3662 30.1041C51.095 32.9575 52.5032 36.6731 52.5032 40.4193C52.5032 43.1206 51.771 45.8378 50.2739 48.2594L50.3933 48.14L57.2803 55.027C57.8491 55.5958 58.1333 56.3413 58.1333 57.0869C58.1333 57.8325 57.8491 58.5781 57.2803 59.1468C56.1428 60.2843 54.2983 60.2843 53.1604 59.1468L46.4294 52.4157ZM50.6667 40.3999C50.6667 33.1834 44.8167 27.3333 37.6001 27.3333C30.3867 27.341 24.541 33.1866 24.5334 40.3999C24.5334 47.6164 30.3835 53.4666 37.6001 53.4666C44.8167 53.4666 50.6667 47.6164 50.6667 40.3999ZM58.1318 34.4393C58.1318 34.3582 58.124 34.2765 58.1084 34.1952L56.6506 27.3405L54.7734 29.2177L55.5676 34.5853C55.6211 35.0538 55.9263 35.4553 56.3635 35.6321C56.8005 35.8089 57.2996 35.7323 57.6631 35.4325C57.9631 35.1853 58.1318 34.8193 58.1318 34.4393ZM24.26 59.7264C23.8953 60.0905 23.3047 60.0905 22.9402 59.7264L4.27344 41.0597C4.09131 40.8774 4.00024 40.6386 4.00024 40.3998C4.00024 40.161 4.09131 39.9222 4.27344 39.7399L15.4734 28.5399L16.7932 29.8597L6.25317 40.3998L23.6001 57.7467L27.6067 53.74L28.9265 55.0598L24.26 59.7264ZM48.8 40.3998C48.8 46.5854 43.7856 51.5999 37.5999 51.5999C31.417 51.593 26.4067 46.5827 26.3999 40.3998C26.3999 34.2142 31.4143 29.1999 37.5999 29.1999C43.7856 29.1999 48.8 34.2142 48.8 40.3998ZM46.9333 40.3998C46.9333 35.2451 42.7546 31.0665 37.5999 31.0665C32.4475 31.072 28.272 35.2474 28.2666 40.3998C28.2666 45.5546 32.4451 49.7332 37.5999 49.7332C42.7546 49.7332 46.9333 45.5546 46.9333 40.3998ZM10.8079 40.3002L16.874 34.2339L18.1938 35.5537L12.1277 41.62L10.8079 40.3002ZM39.0457 44.5749L36.7344 44.5749L36.7344 46.233L34.9258 46.233L34.9258 44.5749L33.4541 44.5749L33.4541 43.1178L34.9258 43.1178L34.9258 42.3498L33.4541 42.3498L33.4541 40.8926L34.9258 40.8926L34.9258 35.782L38.9238 35.782C40.0769 35.782 40.998 36.0835 41.6873 36.6864C42.3762 37.2846 42.7207 38.0813 42.7207 39.0767C42.7207 40.0911 42.3931 40.8879 41.7373 41.4669C41.0818 42.0411 40.1702 42.3354 39.0027 42.3498L36.7344 42.3498L36.7344 43.1178L39.0457 43.1178L39.0457 44.5749ZM13.6995 43.1932L19.7656 37.1269L21.0859 38.4467L15.0193 44.513L13.6995 43.1932ZM36.7344 40.8926L38.895 40.8926C39.5459 40.8926 40.0435 40.7419 40.3879 40.4404Q40.4612 40.3764 40.5239 40.3035Q40.9048 39.8612 40.9048 39.091C40.9048 38.5551 40.7349 38.1172 40.3953 37.7775C40.0603 37.4377 39.5959 37.2607 39.0027 37.2463L36.7344 37.2463L36.7344 40.8926ZM16.5933 46.0861L20.1396 42.5396L21.46 43.8594L17.9131 47.4059L16.5933 46.0861ZM19.4866 48.98L22.0073 46.4598L23.3271 47.7796L20.8069 50.3003L19.4866 48.98ZM56.2671 57.0869C56.2671 56.819 56.1648 56.5512 55.9604 56.3468L49.2844 49.6717C48.8484 50.2181 48.3748 50.7336 47.8667 51.2144L54.4802 57.827C54.8892 58.2358 55.5518 58.2358 55.9604 57.827C56.1648 57.6226 56.2671 57.3548 56.2671 57.0869ZM22.3801 51.8734L24.2468 50.0071L25.5667 51.327L23.7004 53.1932L22.3801 51.8734Z" clip-rule="evenodd" fill="url(#paint_linear_138_4568_0)" fill-opacity="1.000000" fill-rule="evenodd"/>
</svg>
