<svg width="64.000000" height="64.000000" viewBox="0 0 64 64" fill="none" xmlns="http://www.w3.org/2000/svg" xmlns:xlink="http://www.w3.org/1999/xlink">
	<desc>
			Created with Pixso.
	</desc>
	<defs>
		<clipPath id="clip138_4597">
			<rect id="room 1" width="64.000000" height="64.218559" transform="translate(0.000000 -0.109253)" fill="white" fill-opacity="0"/>
		</clipPath>
		<linearGradient id="paint_linear_138_4596_0" x1="63.999989" y1="28.070175" x2="0.000000" y2="28.070175" gradientUnits="userSpaceOnUse">
			<stop stop-color="#9281CE"/>
			<stop offset="1.000000" stop-color="#68DBFF"/>
		</linearGradient>
	</defs>
	<rect id="icon / Union" width="64.000015" height="64.000000" fill="#FFFFFF" fill-opacity="0"/>
	<path id="Union" d="M48.2378 45.537L63.3958 52.6349C63.7654 52.8083 64.002 53.1824 64 53.5922C63.9978 54.002 63.7581 54.374 63.3862 54.5431L42.6521 64L41.7849 62.0876L60.449 53.5754L48.5015 47.98L48.5015 52.5361C48.5015 52.9565 48.2524 53.3369 47.866 53.5007L25.875 62.9576C25.8645 62.9619 25.854 62.9597 25.8435 62.9639C25.8164 62.9744 25.79 62.9881 25.7629 62.9965C25.7356 63.0049 25.7075 63.006 25.6802 63.0123C25.6174 63.0259 25.5544 63.0375 25.4895 63.0396C25.4812 63.0406 25.4729 63.0438 25.4634 63.0438C25.4395 63.0438 25.4163 63.0354 25.3911 63.0344C25.3293 63.0302 25.2676 63.0228 25.2068 63.007C25.1714 62.9976 25.1377 62.985 25.1033 62.9724C25.0728 62.9619 25.0403 62.9566 25.01 62.9419L14.5308 57.9129L10.1472 59.9115L14.3967 61.931L13.5015 63.8308L7.21313 60.8414C6.84448 60.6659 6.61084 60.2919 6.61401 59.8831C6.61719 59.4744 6.85596 59.1035 7.22778 58.9353L12.0657 56.7287L0.925781 51.3824C0.562256 51.208 0.330811 50.8392 0.330811 50.4346L0.330811 33.6224C0.330811 33.16 0.632568 32.7513 1.07349 32.6168L25.1587 25.2615C25.4761 25.1637 25.8206 25.2247 26.0876 25.4222C26.3535 25.6208 26.5107 25.934 26.5107 26.267L26.5107 35.3162L30.6995 33.9155L30.6995 2.5061L0.662842 12.5535L0 10.5602L31.4158 0.0525513C31.4219 0.050415 31.4292 0.0525513 31.4355 0.050415C31.5864 0.00317383 31.7456 -0.0126343 31.9026 0.010498C31.9048 0.010498 31.9058 0.0115356 31.9077 0.0115356C31.9895 0.0241699 32.0701 0.045166 32.1477 0.0777588L54.1375 9.20789L54.1387 9.20789L62.5161 12.687C62.9067 12.8488 63.1621 13.2323 63.1621 13.6578L63.1621 47.2823C63.1621 47.6333 62.9873 47.9611 62.6973 48.1566C62.5225 48.2732 62.3193 48.3331 62.115 48.3331C61.979 48.3331 61.8428 48.3068 61.7151 48.2532L39.7251 39.1232L39.7241 39.1232L31.7078 35.7943L28.4082 36.8976L40.3577 42.0369L47.8669 45.2659C47.887 45.2754 47.9026 45.2901 47.9224 45.3006C47.9592 45.3184 47.9968 45.3311 48.0315 45.3542C48.0513 45.3679 48.0669 45.3867 48.0859 45.4015C48.114 45.4235 48.1404 45.4467 48.1665 45.4708C48.1907 45.4929 48.2168 45.5128 48.2378 45.537ZM39.0769 5.22968L32.7937 2.62061L32.7937 33.9702L39.0769 36.5792L39.0769 5.22968ZM52.6904 10.8817L41.1714 6.09863L41.1714 21.7687L47.4543 20.1926L47.4543 16.8101L49.5488 16.8101L49.5488 20.3018L52.6904 21.5627L52.6904 10.8817ZM22.9346 8.6026C22.6592 8.40509 22.3083 8.3504 21.991 8.45758L3.1416 14.7622C2.71338 14.9061 2.42529 15.3065 2.42529 15.7594L2.42529 28.3685C2.42529 28.7059 2.58667 29.0232 2.85986 29.2207C3.04102 29.3521 3.25586 29.4193 3.47241 29.4193C3.5835 29.4193 3.69556 29.4014 3.80347 29.3657L22.6528 23.0612C23.0811 22.9172 23.3691 22.5168 23.3691 22.064L23.3691 9.45477C23.3691 9.11749 23.2078 8.80017 22.9346 8.6026ZM21.2747 21.3074L4.51978 26.9111L4.51978 16.517L21.2747 10.9133L21.2747 21.3074ZM54.7847 11.7518L54.7847 43.1003L61.0679 45.7094L61.0679 14.3597L54.7847 11.7518ZM13.6606 18.7604L17.3916 15.0154L18.8723 16.5012L14.6836 20.7043C14.4041 20.9848 13.9883 21.0847 13.6123 20.9586L10.9568 20.0707L8.24146 21.8875L7.08008 20.139L10.2217 18.0374C10.4907 17.8577 10.8269 17.8136 11.1338 17.9145L13.6606 18.7604ZM47.4543 22.3593L41.1714 23.9354L41.1714 25.9717L47.4543 24.3956L47.4543 22.3593ZM51.1196 25.1354L52.6904 25.7658L52.6904 23.8261L49.5488 22.5652L49.5488 24.5049L51.1196 25.1354ZM45.3601 27.0876L45.3601 35.4286L47.4543 34.9033L47.4543 26.5623L45.3601 27.0876ZM49.5488 35.0126L52.6904 36.2734L52.6904 28.0292L51.1196 27.3987L49.5488 26.7682L49.5488 35.0126ZM43.2656 27.613L41.1714 28.1384L41.1714 36.4794L43.2656 35.954L43.2656 27.613ZM24.4163 27.6855L2.42529 34.401L2.42529 42.7115L4.51978 42.0726L4.51978 37.8254C4.51978 37.3726 4.80762 36.9722 5.23584 36.8282L11.519 34.7267C11.8374 34.6206 12.1882 34.6742 12.4626 34.8718C12.7358 35.0693 12.8972 35.3866 12.8972 35.7239L12.8972 39.514L14.9915 38.8741L14.9915 34.6732C14.9915 34.2203 15.2795 33.8199 15.7078 33.676L21.991 31.5745C22.3083 31.4683 22.6592 31.5209 22.9346 31.7194C23.2078 31.916 23.3691 32.2343 23.3691 32.5716L23.3691 36.3165L24.4163 35.9971L24.4163 27.6855ZM17.0859 35.4307L17.0859 38.2352L19.5291 37.4882L21.2747 36.9554L21.2747 34.0301L17.0859 35.4307ZM42.9683 38.1943L52.6904 42.2313L52.6904 38.5368L48.4272 36.8262L42.9683 38.1943ZM6.61401 38.5831L6.61401 41.4327L10.8027 40.1539L10.8027 37.1824L6.61401 38.5831ZM37.3113 43.0131L25.4026 37.8917L22.6277 38.7396L16.3445 40.6583L16.3435 40.6583L14.8313 41.1196L12.1548 41.9371L5.87061 43.8558L4.26001 44.3475L18.6042 51.2322L37.3113 43.0131ZM21.0986 52.429L25.4875 54.5347L44.7957 46.2316L39.9492 44.1479L21.0986 52.429ZM14.9958 55.804L24.4163 60.3255L24.4163 56.3504L2.42529 45.7976L2.42529 49.7726L14.9946 55.804L14.9958 55.804ZM26.5107 60.4001L46.4072 51.8437L46.4072 47.8256L26.5107 56.382L26.5107 60.4001Z" clip-rule="evenodd" fill="url(#paint_linear_138_4596_0)" fill-opacity="1.000000" fill-rule="evenodd"/>
</svg>
