<svg width="64.000000" height="64.000000" viewBox="0 0 64 64" fill="none" xmlns="http://www.w3.org/2000/svg" xmlns:xlink="http://www.w3.org/1999/xlink">
	<desc>
			Created with Pixso.
	</desc>
	<defs>
		<clipPath id="clip138_4582">
			<rect id="icon / vr-glasses 1" width="64.000000" height="64.000000" fill="white" fill-opacity="0"/>
		</clipPath>
		<linearGradient id="paint_linear_138_4583_0" x1="63.999874" y1="27.685722" x2="0.000004" y2="27.685722" gradientUnits="userSpaceOnUse">
			<stop stop-color="#9281CE"/>
			<stop offset="1.000000" stop-color="#68DBFF"/>
		</linearGradient>
		<linearGradient id="paint_linear_138_4584_0" x1="14.901067" y1="50.677002" x2="9.018066" y2="50.677002" gradientUnits="userSpaceOnUse">
			<stop stop-color="#9281CE"/>
			<stop offset="1.000000" stop-color="#68DBFF"/>
		</linearGradient>
		<linearGradient id="paint_linear_138_4585_0" x1="14.901067" y1="32.640743" x2="9.018066" y2="32.640743" gradientUnits="userSpaceOnUse">
			<stop stop-color="#9281CE"/>
			<stop offset="1.000000" stop-color="#68DBFF"/>
		</linearGradient>
		<linearGradient id="paint_linear_138_4586_0" x1="54.981880" y1="50.677006" x2="49.098877" y2="50.677006" gradientUnits="userSpaceOnUse">
			<stop stop-color="#9281CE"/>
			<stop offset="1.000000" stop-color="#68DBFF"/>
		</linearGradient>
		<linearGradient id="paint_linear_138_4587_0" x1="54.981880" y1="32.640743" x2="49.098877" y2="32.640743" gradientUnits="userSpaceOnUse">
			<stop stop-color="#9281CE"/>
			<stop offset="1.000000" stop-color="#68DBFF"/>
		</linearGradient>
		<linearGradient id="paint_linear_138_4588_0" x1="30.933723" y1="41.412663" x2="20.040039" y2="41.412663" gradientUnits="userSpaceOnUse">
			<stop stop-color="#9281CE"/>
			<stop offset="1.000000" stop-color="#68DBFF"/>
		</linearGradient>
		<linearGradient id="paint_linear_138_4589_0" x1="42.957531" y1="41.412800" x2="33.066406" y2="41.412800" gradientUnits="userSpaceOnUse">
			<stop stop-color="#9281CE"/>
			<stop offset="1.000000" stop-color="#68DBFF"/>
		</linearGradient>
	</defs>
	<rect id="icon / vr-glasses 1" width="64.000000" height="64.000000" fill="#FFFFFF" fill-opacity="0"/>
	<g clip-path="url(#clip138_4582)">
		<path id="Vector" d="M61.05 35.07L59.99 35.07L59.99 35C59.99 31.09 57.46 27.75 53.95 26.54C53.73 24.02 51.61 22.04 49.03 22.04L36.94 22.04L36.94 5.95C36.94 4.88 36.07 4.01 35 4.01L28.99 4.01C27.92 4.01 27.05 4.88 27.05 5.95L27.05 18.97C27.05 19.49 27.47 19.91 27.99 19.91C28.5 19.91 28.92 19.49 28.92 18.97L28.92 5.95C28.92 5.91 28.95 5.88 28.99 5.88L35 5.88C35.04 5.88 35.07 5.91 35.07 5.95L35.07 22.04L14.96 22.04C12.38 22.04 10.26 24.02 10.04 26.54C6.53 27.75 4 31.09 4 35L4 35.07L2.94 35.07C1.31 35.07 0 36.39 0 38.01L0 42.02C0 43.64 1.31 44.96 2.94 44.96L4 44.96L4 49.03C4 53.97 8.02 57.98 12.96 57.98L51.03 57.98C55.97 57.98 59.99 53.97 59.99 49.03L59.99 44.96L61.05 44.96C62.68 44.96 63.99 43.64 63.99 42.02L63.99 38.01C64 36.39 62.68 35.07 61.05 35.07ZM2.94 43.08C2.35 43.08 1.87 42.6 1.87 42.02L1.87 38.01C1.87 37.42 2.35 36.94 2.94 36.94L4 36.94L4 43.08L2.94 43.08ZM58.11 49.03C58.11 52.93 54.94 56.11 51.03 56.11L12.96 56.11C9.05 56.11 5.88 52.93 5.88 49.03L5.88 35C5.88 31.1 9.05 27.92 12.96 27.92L44.02 27.92C44.54 27.92 44.96 27.5 44.96 26.98C44.96 26.47 44.54 26.05 44.02 26.05L12.96 26.05C12.64 26.05 12.33 26.06 12.02 26.1C12.4 24.84 13.58 23.91 14.96 23.91L49.03 23.91C50.41 23.91 51.59 24.84 51.97 26.1C51.66 26.06 51.35 26.05 51.03 26.05L48.03 26.05C47.51 26.05 47.09 26.47 47.09 26.98C47.09 27.5 47.51 27.92 48.03 27.92L51.03 27.92C54.94 27.92 58.11 31.1 58.11 35L58.11 49.03ZM62.12 42.02C62.12 42.6 61.64 43.08 61.05 43.08L59.99 43.08L59.99 36.94L61.05 36.94C61.64 36.94 62.12 37.42 62.12 38.01L62.12 42.02Z" fill="url(#paint_linear_138_4583_0)" fill-opacity="1.000000" fill-rule="nonzero"/>
		<path id="Vector" d="M11.95 48.09C10.33 48.09 9.01 49.41 9.01 51.03C9.01 52.66 10.33 53.97 11.95 53.97C13.58 53.97 14.9 52.66 14.9 51.03C14.9 49.41 13.58 48.09 11.95 48.09ZM11.95 52.1C11.37 52.1 10.89 51.62 10.89 51.03C10.89 50.45 11.37 49.97 11.95 49.97C12.54 49.97 13.02 50.45 13.02 51.03C13.02 51.62 12.54 52.1 11.95 52.1Z" fill="url(#paint_linear_138_4584_0)" fill-opacity="1.000000" fill-rule="nonzero"/>
		<path id="Vector" d="M11.95 30.06C10.33 30.06 9.01 31.38 9.01 33C9.01 34.62 10.33 35.94 11.95 35.94C13.58 35.94 14.9 34.62 14.9 33C14.9 31.38 13.58 30.06 11.95 30.06ZM11.95 34.06C11.37 34.06 10.89 33.59 10.89 33C10.89 32.41 11.37 31.93 11.95 31.93C12.54 31.93 13.02 32.41 13.02 33C13.02 33.59 12.54 34.06 11.95 34.06Z" fill="url(#paint_linear_138_4585_0)" fill-opacity="1.000000" fill-rule="nonzero"/>
		<path id="Vector" d="M52.04 48.09C50.41 48.09 49.09 49.41 49.09 51.03C49.09 52.66 50.41 53.97 52.04 53.97C53.66 53.97 54.98 52.66 54.98 51.03C54.98 49.41 53.66 48.09 52.04 48.09ZM52.04 52.1C51.45 52.1 50.97 51.62 50.97 51.03C50.97 50.45 51.45 49.97 52.04 49.97C52.62 49.97 53.1 50.45 53.1 51.03C53.1 51.62 52.62 52.1 52.04 52.1Z" fill="url(#paint_linear_138_4586_0)" fill-opacity="1.000000" fill-rule="nonzero"/>
		<path id="Vector" d="M52.04 30.06C50.41 30.06 49.09 31.38 49.09 33C49.09 34.62 50.41 35.94 52.04 35.94C53.66 35.94 54.98 34.62 54.98 33C54.98 31.38 53.66 30.06 52.04 30.06ZM52.04 34.06C51.45 34.06 50.97 33.59 50.97 33C50.97 32.41 51.45 31.93 52.04 31.93C52.62 31.93 53.1 32.41 53.1 33C53.1 33.59 52.62 34.06 52.04 34.06Z" fill="url(#paint_linear_138_4587_0)" fill-opacity="1.000000" fill-rule="nonzero"/>
		<path id="Vector" d="M30.32 37.13C29.84 36.95 29.29 37.19 29.11 37.68L26.63 44.29C26.46 44.77 25.99 45.09 25.48 45.09C24.97 45.09 24.51 44.77 24.33 44.29L21.85 37.68C21.67 37.19 21.13 36.95 20.64 37.13C20.16 37.31 19.91 37.85 20.1 38.34L22.57 44.95C23.03 46.15 24.19 46.96 25.49 46.96C26.77 46.96 27.94 46.15 28.39 44.95L30.87 38.34C31.05 37.85 30.8 37.31 30.32 37.13Z" fill="url(#paint_linear_138_4588_0)" fill-opacity="1.000000" fill-rule="nonzero"/>
		<path id="Vector" d="M42.95 40.01C42.95 38.39 41.63 37.07 40.01 37.07L34 37.07C33.48 37.07 33.06 37.49 33.06 38.01L33.06 46.02C33.06 46.54 33.48 46.96 34 46.96C34.52 46.96 34.94 46.54 34.94 46.02L34.94 38.94L40.01 38.94C40.6 38.94 41.08 39.42 41.08 40.01C41.08 40.6 40.6 41.08 40.01 41.08L38.03 41.08C37.48 41.08 36.98 41.43 36.8 41.94C36.62 42.46 36.79 43.04 37.22 43.38L41.43 46.76C41.6 46.89 41.81 46.96 42.01 46.96C42.29 46.96 42.56 46.84 42.75 46.61C43.07 46.2 43.01 45.61 42.6 45.29L39.68 42.95L40.01 42.95C41.63 42.95 42.95 41.63 42.95 40.01Z" fill="url(#paint_linear_138_4589_0)" fill-opacity="1.000000" fill-rule="nonzero"/>
	</g>
</svg>
