<svg width="64.000000" height="64.000000" viewBox="0 0 64 64" fill="none" xmlns="http://www.w3.org/2000/svg" xmlns:xlink="http://www.w3.org/1999/xlink">
	<desc>
			Created with Pixso.
	</desc>
	<defs>
		<clipPath id="clip138_4607">
			<rect id="icon / panorama" width="64.000000" height="64.000000" fill="white" fill-opacity="0"/>
		</clipPath>
		<linearGradient id="paint_linear_138_4608_0" x1="64.000000" y1="28.500000" x2="0.000000" y2="28.500000" gradientUnits="userSpaceOnUse">
			<stop stop-color="#9281CE"/>
			<stop offset="1.000000" stop-color="#68DBFF"/>
		</linearGradient>
	</defs>
	<rect id="icon / panorama" width="64.000000" height="64.000000" fill="#FFFFFF" fill-opacity="0"/>
	<g clip-path="url(#clip138_4607)">
		<path id="Union" d="M57 3.5L7 3.5C3.14111 3.5 0 6.64099 0 10.5L0 38.5C0 42.359 3.14111 45.5 7 45.5C7.55298 45.5 8 45.053 8 44.5L8 33.5L20 33.5L20 38.505C20 39.586 20.157 40.628 20.427 41.625C20.4309 41.655 20.4431 41.683 20.449 41.713C21.2981 44.763 23.3191 47.322 26 48.879L26 51.504L23.001 51.502L23 51.502C19.1411 51.502 16 54.643 16 58.502L16 59.5C16 60.053 16.447 60.5 17 60.5C17.553 60.5 18 60.053 18 59.5L18 58.502C18 55.745 20.2429 53.502 23 53.502L26.999 53.504L37.001 53.504L41 53.502C43.7571 53.502 46 55.745 46 58.502L46 59.5C46 60.053 46.447 60.5 47 60.5C47.553 60.5 48 60.053 48 59.5L48 58.502C48 54.643 44.8589 51.502 41 51.502L40.999 51.502L38 51.504L38 48.879C40.6809 47.322 42.7009 44.763 43.551 41.713C43.5581 41.683 43.571 41.655 43.573 41.625C43.843 40.628 44 39.585 44 38.505L44 33.5L49.9541 33.5C49.9709 33.501 49.9861 33.512 50.0039 33.512C50.0291 33.512 50.054 33.502 50.0791 33.5L56 33.5L56 44.5C56 45.053 56.447 45.5 57 45.5C60.8589 45.5 64 42.359 64 38.5L64 10.5C64 6.64099 60.8589 3.5 57 3.5ZM8 16.5C8 15.947 7.55298 15.5 7 15.5C4.24292 15.5 2 13.257 2 10.5C2 7.74301 4.24292 5.5 7 5.5L13.001 5.5L13.001 31.5L8 31.5L8 16.5ZM38.1951 16.919L35.2351 20.959C34.2041 20.67 33.123 20.504 32.001 20.504C25.7229 20.504 20.564 25.352 20.052 31.5L15.002 31.5L15.002 5.5L48.999 5.5L48.999 29.451L39.811 16.919C39.7649 16.869 39.4609 16.555 38.9761 16.566C38.5229 16.577 38.2451 16.866 38.1951 16.919ZM57 15.5C56.447 15.5 56 15.947 56 16.5L56 31.5L50.999 31.5L50.999 5.5L57 5.5C59.7571 5.5 62 7.74301 62 10.5C62 13.257 59.7571 15.5 57 15.5ZM25.0029 12.504C25.0029 14.158 23.657 15.504 22.0029 15.504C20.3491 15.504 19.0029 14.158 19.0029 12.504C19.0029 10.85 20.3491 9.50403 22.0029 9.50403C23.657 9.50403 25.0029 10.85 25.0029 12.504ZM23.0029 12.504C23.0029 11.952 22.5549 11.504 22.0029 11.504C21.4512 11.504 21.0029 11.952 21.0029 12.504C21.0029 13.056 21.4512 13.504 22.0029 13.504C22.5549 13.504 23.0029 13.056 23.0029 12.504ZM2 38.5L2 15.39C3.05103 16.464 4.44312 17.196 6 17.42L6 43.399C3.72095 42.935 2 40.914 2 38.5ZM62 38.5C62 40.914 60.2791 42.935 58 43.398L58 17.42C59.5569 17.195 60.949 16.464 62 15.39L62 38.5ZM37.175 21.693L39.0029 19.199L48.021 31.5L43.949 31.5C43.5879 27.168 40.918 23.493 37.175 21.693ZM42 32.504L42 38.502C42 39.406 41.8679 40.279 41.6431 41.113C41.1421 41.828 38.2681 45.502 32 45.502C25.7151 45.502 22.874 41.859 22.3579 41.114C22.1321 40.279 22 39.407 22 38.502L22 32.504C22 26.99 26.4861 22.504 32 22.504C37.5139 22.504 42 26.99 42 32.504ZM32 48.502C29.5591 48.502 27.321 47.62 25.583 46.161C27.252 46.931 29.365 47.502 32 47.502C34.635 47.502 36.748 46.931 38.417 46.161C36.679 47.62 34.4409 48.502 32 48.502ZM28 51.504L28 49.802C29.2529 50.247 30.5959 50.502 32 50.502C33.4041 50.502 34.7471 50.247 36 49.802L36 51.504L28 51.504Z" clip-rule="evenodd" fill="url(#paint_linear_138_4608_0)" fill-opacity="1.000000" fill-rule="evenodd"/>
	</g>
</svg>
