<svg width="64.000000" height="64.000000" viewBox="0 0 64 64" fill="none" xmlns="http://www.w3.org/2000/svg" xmlns:xlink="http://www.w3.org/1999/xlink">
	<desc>
			Created with Pixso.
	</desc>
	<defs>
		<clipPath id="clip138_4590">
			<rect id="icon / virtual-reality 1" width="64.000000" height="64.000000" fill="white" fill-opacity="0"/>
		</clipPath>
		<linearGradient id="paint_linear_138_4591_0" x1="62.175323" y1="28.070118" x2="2.000000" y2="28.070118" gradientUnits="userSpaceOnUse">
			<stop stop-color="#9281CE"/>
			<stop offset="1.000000" stop-color="#68DBFF"/>
		</linearGradient>
	</defs>
	<rect id="icon / virtual-reality 1" width="64.000000" height="64.000000" fill="#FFFFFF" fill-opacity="0"/>
	<g clip-path="url(#clip138_4590)">
		<path id="Union" d="M61.5984 57.4301L62.1331 60.559C62.2795 61.4164 62.0417 62.2894 61.4807 62.954C60.9202 63.6185 60.0994 63.9999 59.2297 63.9999L4.94507 63.9999C4.07544 63.9999 3.25513 63.6185 2.69409 62.954C2.13354 62.2894 1.89575 61.4164 2.04224 60.559L3.323 53.0599C3.84351 50.0131 5.80347 47.4139 8.50317 46.0394L8.50317 20.7192C8.50317 18.9443 9.94653 17.5009 11.7214 17.5009L13.1819 17.5009L13.1819 14.3774C13.1819 13.313 14.0481 12.4468 15.1125 12.4468L16.0754 12.4468C16.3074 11.8003 16.905 11.3267 17.6174 11.2759C17.9612 8.7627 19.0481 6.41064 20.7278 4.57666C24.8889 0.0332031 31.0149 0.00244141 31.2786 0L32.9055 0C33.2468 0 39.3176 0.0673828 43.448 4.57764C45.1272 6.41211 46.2146 8.76416 46.5579 11.2764C47.2683 11.3291 47.8635 11.8018 48.095 12.4468L49.0579 12.4468C50.1223 12.4468 50.9885 13.313 50.9885 14.3774L50.9885 22.4995C50.9885 23.5639 50.1223 24.4296 49.0579 24.4296L48.095 24.4296C47.8494 25.1142 47.1941 25.6049 46.4265 25.6049L45.989 25.6049L45.9558 26.2001C45.8269 28.4995 45.0759 30.7177 43.7839 32.6142C43.0227 33.7328 41.2195 35.5546 39.4895 37.1064L39.4895 40.3539C39.4895 41.4682 40.303 42.4648 41.0305 42.6108L42.1609 42.851L53.8342 45.3319C53.8538 45.3358 53.8728 45.3402 53.8914 45.3456C57.4905 46.3485 60.2229 49.3768 60.8518 53.0599C60.9392 53.5702 60.5959 54.0551 60.0857 54.142C59.5754 54.2289 59.0911 53.8861 59.0037 53.3759C58.4978 50.4135 56.3059 47.9764 53.4153 47.1595L42.1648 44.7689C39.1736 46.7758 35.6965 47.8348 32.0876 47.8348C28.4788 47.8348 25.0012 46.7758 22.0105 44.7689L10.7595 47.1595C10.491 47.2352 10.2278 47.3256 9.97192 47.4286C9.87231 47.4974 9.75854 47.5472 9.63599 47.5731C7.31128 48.64 5.60913 50.8109 5.17114 53.3759L3.89038 60.8744C3.83618 61.1908 3.92065 61.4999 4.1272 61.745C4.33374 61.9901 4.62427 62.1249 4.94507 62.1249L11.5168 62.1249L12.6902 54.9125C12.7737 54.4012 13.2561 54.0551 13.7664 54.1381C14.2771 54.2211 14.6243 54.7025 14.5408 55.2137L13.4163 62.1249L50.759 62.1249L49.634 55.2137C49.551 54.7025 49.8977 54.2211 50.4089 54.1381C50.9211 54.0551 51.4016 54.4017 51.4846 54.9125L52.6584 62.1249L59.2297 62.1249C59.5505 62.1249 59.8411 61.9901 60.0476 61.745C60.2546 61.4999 60.3386 61.1908 60.2849 60.8744L59.7502 57.746C59.6633 57.2357 60.0061 56.7513 60.5164 56.6639C61.0266 56.5765 61.5115 56.9198 61.5984 57.4301ZM31.2761 1.875C31.2195 1.875 25.7004 1.92334 22.1106 5.84326C20.7458 7.3335 19.8425 9.23193 19.5134 11.2715L44.6614 11.2715C44.3328 9.23291 43.4294 7.33447 42.0647 5.84375C38.4661 1.91357 32.9836 1.875 32.9021 1.875L31.2761 1.875ZM18.4617 13.1465L17.8469 13.1465L17.8469 23.7299L22.2185 23.7299C22.7366 23.7299 23.156 24.1494 23.156 24.6674C23.156 25.185 22.7366 25.6049 22.2185 25.6049L20.0637 25.6049L20.0911 26.0937C20.2009 28.0536 20.8406 29.9433 21.9407 31.5585C22.5105 32.3954 23.9338 33.8886 25.656 35.455C25.8547 35.6357 26.0466 35.808 26.2317 35.9716C26.24 35.9785 26.2483 35.9858 26.2561 35.9931C27.7605 37.3217 28.7917 38.0737 29.074 38.1938C30.989 39.0107 33.1853 39.0107 35.1008 38.1938C35.9602 37.8276 40.8806 33.5463 42.2341 31.5585C43.3342 29.9433 43.9734 28.0541 44.0833 26.0947L44.1111 25.6049L35.8923 25.6049C35.0505 25.6049 34.2249 25.3749 33.5042 24.9394C32.6292 24.4111 31.5417 24.4111 30.6663 24.9394C29.9456 25.3749 29.1194 25.6049 28.2776 25.6049L26.5847 25.6049C26.0671 25.6049 25.6472 25.185 25.6472 24.6674C25.6472 24.1498 26.0671 23.7299 26.5847 23.7299L28.2776 23.7299C28.7781 23.7299 29.2688 23.5932 29.697 23.3344C31.1702 22.4448 33.0002 22.4448 34.4734 23.3344C34.9016 23.5932 35.3923 23.7299 35.8928 23.7299L46.3235 23.7299L46.3235 13.1465L18.4617 13.1465ZM15.113 14.3218C15.0823 14.3218 15.0574 14.3467 15.0574 14.3774L15.0574 22.499C15.0574 22.5297 15.0823 22.5546 15.113 22.5546L15.9719 22.5546L15.9719 14.3218L15.113 14.3218ZM49.0574 14.3218L48.1985 14.3218L48.1985 22.5546L49.0574 22.5546C49.0881 22.5546 49.113 22.5297 49.113 22.499L49.113 14.3774C49.113 14.3467 49.0881 14.3218 49.0574 14.3218ZM34.7666 15.7045C34.7666 15.7206 34.7744 15.7529 34.7827 15.7851L36.3359 20.8466C36.416 21.0883 36.7061 21.2006 37.0117 21.2006C37.3174 21.2006 37.6152 21.0883 37.6875 20.8466L39.2324 15.7851C39.2407 15.7529 39.249 15.7289 39.249 15.7045C39.249 15.455 38.8706 15.27 38.5889 15.27C38.4121 15.27 38.2749 15.3261 38.2349 15.4794L37.0117 19.8408L35.7803 15.4794C35.7402 15.3261 35.6035 15.27 35.4263 15.27C35.145 15.27 34.7666 15.4472 34.7666 15.7045ZM39.8042 15.5922C39.8042 15.4233 39.9409 15.2704 40.1421 15.2704L41.7354 15.2704C42.7896 15.2704 43.6426 15.6728 43.6426 16.9521C43.6426 17.8774 43.1919 18.3764 42.5884 18.5615L43.6426 20.517C43.6748 20.5571 43.6826 20.6137 43.6826 20.6459C43.6826 20.9116 43.3369 21.1928 43.0308 21.1928C42.8862 21.1928 42.7495 21.1044 42.6689 20.9433L41.5264 18.7221L40.8501 18.7221L40.8501 20.8227C40.8501 21.04 40.5928 21.1528 40.3271 21.1528C40.0693 21.1528 39.8037 21.04 39.8037 20.8227L39.8037 15.5922L39.8042 15.5922ZM40.8501 16.1874L40.8501 17.9013L41.7354 17.9013C42.2583 17.9013 42.5962 17.684 42.5962 17.0483C42.5962 16.4125 42.2583 16.1874 41.7354 16.1874L40.8501 16.1874ZM11.7214 19.3759C10.9807 19.3759 10.3782 19.9785 10.3782 20.7192L10.3782 45.3236L22.0144 42.851L23.1345 42.6132C23.8723 42.4648 24.6858 41.4682 24.6858 40.3539L24.6858 37.1064C22.9558 35.5546 21.1526 33.7328 20.3914 32.6142C19.0994 30.7177 18.3484 28.499 18.2195 26.1992L18.1858 25.6049L17.7444 25.6049C16.9763 25.6049 16.321 25.1142 16.0754 24.4296L15.113 24.4296C14.0486 24.4296 13.1824 23.5634 13.1824 22.499L13.1824 19.3759L11.7214 19.3759ZM32.0876 45.9598C34.7581 45.9598 37.3479 45.3129 39.6785 44.0751C38.3845 43.3207 37.614 41.7158 37.614 40.3539L37.614 38.7011C36.8459 39.3134 36.2048 39.7617 35.8362 39.9189C34.6453 40.4272 33.3665 40.6811 32.0876 40.6811C30.8088 40.6811 29.53 40.4267 28.3386 39.9189C27.9705 39.7617 27.3293 39.3139 26.5608 38.7011L26.5608 40.3539C26.5608 41.7148 25.7922 43.3178 24.4944 44.0742C26.8254 45.3124 29.4163 45.9598 32.0876 45.9598Z" clip-rule="evenodd" fill="url(#paint_linear_138_4591_0)" fill-opacity="1.000000" fill-rule="evenodd"/>
	</g>
</svg>
