<svg width="64.000000" height="64.000000" viewBox="0 0 64 64" fill="none" xmlns="http://www.w3.org/2000/svg" xmlns:xlink="http://www.w3.org/1999/xlink">
	<desc>
			Created with Pixso.
	</desc>
	<defs>
		<clipPath id="clip138_4565">
			<rect id="icon / 123" width="64.000000" height="64.000000" fill="white" fill-opacity="0"/>
		</clipPath>
		<linearGradient id="paint_linear_138_4566_0" x1="63.000004" y1="29.245609" x2="1.000000" y2="29.245609" gradientUnits="userSpaceOnUse">
			<stop stop-color="#9281CE"/>
			<stop offset="1.000000" stop-color="#68DBFF"/>
		</linearGradient>
	</defs>
	<g clip-path="url(#clip138_4565)">
		<path id="738275 1 (Traced)" d="M23.7 6.31C12.96 7.68 4.84 11.18 2.14 15.6C1 17.47 1 17.49 1 34.88C1 50.65 1.08 52.45 1.87 53.92C2.75 55.56 6.83 58.97 7.95 59C8.41 59 8.56 57.15 8.56 51.35L8.56 43.7L11.12 42.68C23.16 37.86 40.69 37.86 52.87 42.69L55.43 43.7L55.43 51.35C55.43 57.15 55 59 56.04 59C57.16 58.97 61.24 55.56 62.12 53.92C62.91 52.45 63 50.65 63 34.84C63 34.84 63 24.09 63 17.5C62.54 16.65 61.7 15.4 61.7 15.4C59 12 53.25 8.72 44.59 7.02C39.62 6.05 28.64 5.67 23.7 6.31ZM40.93 8.29C53.91 10.19 61.93 15.04 60.94 20.35C60.78 21.22 59.68 22.64 58.06 24.09L55.44 26.42L55.43 34.11C55.43 38.34 55.24 41.58 55.02 41.32C54.8 41.06 53.23 35.59 51.54 29.16C49.84 22.73 48.33 17.32 48.16 17.14C48 16.95 46.54 19.02 44.93 21.72C43.32 24.43 41.88 26.65 41.73 26.66C41.59 26.67 40.97 25.63 40.36 24.36C39.76 23.09 39.1 22.25 38.9 22.5C38.7 22.74 36.5 26.1 34.02 29.97L29.49 37L26.47 37.32C24.81 37.5 22.52 37.78 21.38 37.94C18.89 38.29 18.59 37.4 20.52 35.42C21.49 34.44 21.74 33.68 21.74 31.78C21.74 28.65 20.74 27.17 18.6 27.17C17.71 27.17 16.69 27.52 16.34 27.96C15.95 28.44 15.23 28.65 14.48 28.51C10.59 27.75 8.47 33.6 11.47 36.85C13.03 38.55 12.76 39.97 10.7 40.84C9.73 41.26 8.85 41.6 8.75 41.6C8.64 41.6 8.56 38.18 8.56 34.01L8.55 26.42L5.93 24.09C4.31 22.64 3.21 21.22 3.05 20.35C2.08 15.19 9.36 10.57 21.74 8.5C26.38 7.73 36.36 7.61 40.93 8.29ZM41.76 11.22C41.76 11.93 42.07 12.25 42.77 12.25C43.47 12.25 43.73 11.98 43.62 11.38C43.37 10.09 41.76 9.94 41.76 11.22ZM45.49 11.99C45.28 12.54 45.92 12.93 48 13.55C49.54 14 51.59 14.78 52.57 15.28C54.16 16.09 54.39 16.11 54.65 15.43C54.81 15 54.94 14.56 54.94 14.45C54.94 13.97 47.65 11.27 46.33 11.26C46.02 11.25 45.64 11.58 45.49 11.99ZM12.49 12.7C11.29 13.2 10.24 13.84 10.15 14.12C9.86 15.01 11 15.35 12.37 14.8C13.1 14.5 14.29 14.04 15.02 13.77C15.93 13.43 16.26 13.03 16.07 12.51C15.71 11.56 15.2 11.58 12.49 12.7ZM26.14 12.5C26.14 12.91 26.57 13.24 27.11 13.24C27.66 13.24 28.09 12.91 28.09 12.5C28.09 12.08 27.66 11.75 27.11 11.75C26.57 11.75 26.14 12.08 26.14 12.5ZM21.31 13.92C20.89 14.44 20.94 14.76 21.51 15.24C22.45 16.03 23.49 15.2 23.04 14.02C22.68 13.06 22.04 13.02 21.31 13.92ZM31.08 13.92C30.65 14.44 30.68 14.74 31.19 15.17C31.7 15.61 32 15.58 32.42 15.06C32.85 14.53 32.82 14.23 32.31 13.8C31.8 13.37 31.5 13.39 31.08 13.92ZM6.89 15.67C6.44 16.4 8.03 17.47 8.64 16.85C8.93 16.55 9.01 16.07 8.83 15.77C8.44 15.12 7.26 15.06 6.89 15.67ZM25.31 15.72C23.11 16.65 22.45 20.43 24.18 22.2C25.4 23.44 28.1 23.5 29.5 22.32C30.06 21.84 30.66 20.76 30.82 19.91C31.34 17.14 28 14.59 25.31 15.72ZM28.48 17.82C29.29 18.64 29.21 19.99 28.3 20.92C27.29 21.94 26.83 21.9 25.65 20.7C24.47 19.5 24.43 19.03 25.44 18C26.35 17.07 27.67 16.99 28.48 17.82ZM4.95 18.09C4.79 18.25 4.66 18.82 4.66 19.35C4.66 20.02 4.89 20.22 5.43 20.01C5.85 19.84 6.29 19.71 6.41 19.71C6.52 19.71 6.61 19.4 6.61 19.02C6.61 18.27 5.42 17.6 4.95 18.09ZM19.3 19.17C19.3 19.89 19.62 20.21 20.31 20.21C21.01 20.21 21.28 19.94 21.16 19.34C20.92 18.04 19.3 17.9 19.3 19.17ZM32.97 19.21C32.97 19.76 33.3 20.21 33.7 20.21C34.11 20.21 34.44 19.76 34.44 19.21C34.44 18.66 34.11 18.22 33.7 18.22C33.3 18.22 32.97 18.66 32.97 19.21ZM6.64 21.41C6.15 22.01 6.39 22.37 8.03 23.47C9.11 24.2 10.34 24.67 10.75 24.51C11.8 24.1 11.67 23.44 10.39 22.78C9.79 22.47 8.83 21.87 8.27 21.44C7.37 20.77 7.16 20.77 6.64 21.41ZM50.03 30.64C51.38 35.67 52.41 39.86 52.32 39.96C52.23 40.05 50.75 39.75 49.03 39.3C47.31 38.84 44.23 38.22 42.17 37.92C40.12 37.62 38.39 37.14 38.34 36.87C38.24 36.4 47.23 21.13 47.46 21.37C47.52 21.44 48.68 25.61 50.03 30.64ZM21.47 23.73C20.97 24.56 22.1 25.51 22.77 24.83C23.34 24.25 22.99 23.19 22.23 23.19C21.99 23.19 21.65 23.43 21.47 23.73ZM30.75 23.74C30.56 24.04 30.73 24.61 31.13 25C31.75 25.64 31.91 25.63 32.45 24.98C32.78 24.57 32.91 24 32.74 23.71C32.33 23.03 31.16 23.05 30.75 23.74ZM6.61 41.72L6.61 56.2L5.34 54.99C2.77 52.54 2.7 52.12 2.7 37.6L2.7 24.1L4.66 25.68L6.61 27.25L6.61 41.72ZM60.77 52.11C60.48 52.83 59.6 54.05 58.81 54.81L57.38 56.21L57.38 41.74L57.38 27.27L59.21 25.77L61.04 24.27L61.17 37.54C61.26 46.27 61.12 51.25 60.77 52.11ZM26.14 26.14C26.14 26.85 26.45 27.17 27.15 27.17C27.85 27.17 28.11 26.9 28 26.31C27.75 25.01 26.14 24.86 26.14 26.14ZM40.28 28.6C40.29 28.98 39.25 31.04 37.98 33.19C35.73 36.97 35.59 37.09 33.79 37.11C32.76 37.11 31.99 36.94 32.08 36.72C32.17 36.5 33.76 33.9 35.62 30.95C38.88 25.77 39.01 25.63 39.63 26.75C39.97 27.39 40.27 28.22 40.28 28.6ZM19.79 31.65C19.79 34.27 18.91 35.15 17.61 33.83C16.05 32.25 17.25 28.27 19.07 28.99C19.57 29.18 19.79 30.01 19.79 31.65ZM14.33 30.59C14.74 30.85 14.92 31.77 14.82 33.18C14.7 34.86 14.45 35.41 13.75 35.55C13.24 35.65 12.64 35.42 12.41 35.05C11.8 34.07 11.89 31.44 12.57 30.75C13.25 30.05 13.47 30.03 14.33 30.59ZM17.35 37.34C17.35 38.47 16.54 39.11 15.11 39.11C14.09 39.11 14.27 38.12 15.52 36.89C16.81 35.62 17.35 35.75 17.35 37.34ZM30.53 41.63C30.53 42.34 30.79 42.61 31.38 42.5C32.65 42.25 32.79 40.6 31.54 40.6C30.84 40.6 30.53 40.92 30.53 41.63ZM22.48 41.54C21.16 41.75 20.48 42.13 20.37 42.72C20.19 43.67 21.02 43.81 23.63 43.28C24.69 43.06 25.16 42.68 25.16 42.03C25.16 41.52 25 41.13 24.79 41.17C24.59 41.21 23.55 41.38 22.48 41.54ZM36.88 41.96C36.88 42.8 37.31 43 39.68 43.28C41.23 43.45 43.65 43.86 45.07 44.17C47.06 44.62 47.78 44.61 48.24 44.15C48.7 43.68 48.68 43.45 48.15 43.12C47.4 42.65 43.38 41.81 39.44 41.3C37.1 41 36.88 41.06 36.88 41.96ZM15.88 43.59C15.88 44.58 16.63 44.83 18.01 44.29C19.11 43.86 18.4 42.59 17.05 42.59C16.21 42.59 15.88 42.87 15.88 43.59ZM12.62 43.91C11.73 44.27 12.44 45.58 13.53 45.58C14.17 45.58 14.44 45.29 14.33 44.75C14.16 43.84 13.53 43.53 12.62 43.91ZM50.21 44.39C50.05 44.82 50.22 45.38 50.6 45.62C51.64 46.29 52.01 46.16 52.01 45.13C52.01 43.92 50.61 43.34 50.21 44.39Z" fill="url(#paint_linear_138_4566_0)" fill-opacity="1.000000" fill-rule="evenodd"/>
	</g>
</svg>
