<svg width="32.000000" height="32.000000" viewBox="0 0 32 32" fill="none" xmlns="http://www.w3.org/2000/svg" xmlns:xlink="http://www.w3.org/1999/xlink">
	<desc>
			Created with Pixso.
	</desc>
	<defs>
		<clipPath id="clip138_3658">
			<rect id="smartphone 1" width="32.000000" height="32.000000" fill="white" fill-opacity="0"/>
		</clipPath>
	</defs>
	<g opacity="0.900000">
		<rect id="smartphone 1" width="32.000000" height="32.000000" fill="#FFFFFF" fill-opacity="0"/>
		<g clip-path="url(#clip138_3658)">
			<path id="Vector" d="M22.29 0L9.7 0C8.43 0 7.39 1.03 7.39 2.3L7.39 29.69C7.39 30.96 8.43 32 9.7 32L22.29 32C23.56 32 24.59 30.96 24.59 29.69L24.59 2.3C24.59 1.03 23.56 0 22.29 0ZM14.45 1.36L17.54 1.36C17.65 1.36 17.74 1.45 17.74 1.56C17.74 1.67 17.65 1.76 17.54 1.76L14.45 1.76C14.34 1.76 14.25 1.67 14.25 1.56C14.25 1.45 14.34 1.36 14.45 1.36ZM11.37 0.88C11.55 0.88 11.69 1.02 11.69 1.2C11.69 1.38 11.55 1.52 11.37 1.52C11.19 1.52 11.05 1.38 11.05 1.2C11.05 1.02 11.19 0.88 11.37 0.88ZM9.91 0.68C10.2 0.68 10.43 0.91 10.43 1.2C10.43 1.48 10.2 1.71 9.91 1.71C9.63 1.71 9.4 1.48 9.4 1.2C9.4 0.91 9.63 0.68 9.91 0.68ZM16.8 30.82L15.19 30.82C14.68 30.82 14.26 30.41 14.26 29.9C14.26 29.39 14.68 28.97 15.19 28.97L16.8 28.97C17.31 28.97 17.73 29.39 17.73 29.9C17.73 30.41 17.31 30.82 16.8 30.82ZM23.62 28.24L8.37 28.24L8.37 3.75L23.62 3.75L23.62 28.24Z" fill="#FFFFFF" fill-opacity="1.000000" fill-rule="nonzero"/>
		</g>
	</g>
</svg>
