<svg width="62" height="9" viewBox="0 0 62 9" fill="none" xmlns="http://www.w3.org/2000/svg">
<mask id="path-1-inside-1_138_635" fill="white">
<path fill-rule="evenodd" clip-rule="evenodd" d="M0.000724399 4.50002L4.70622 9.00001L4.70624 4.97456L62 4.97456L62 4.02565L4.70624 4.02565L4.70625 5.00878e-06L0.000724399 4.50002Z"/>
</mask>
<path fill-rule="evenodd" clip-rule="evenodd" d="M0.000724399 4.50002L4.70622 9.00001L4.70624 4.97456L62 4.97456L62 4.02565L4.70624 4.02565L4.70625 5.00878e-06L0.000724399 4.50002Z" fill="#000032"/>
<path d="M4.70622 9.00001L4.01508 9.72272L5.70622 11.34L5.70622 9.00001L4.70622 9.00001ZM0.000724399 4.50002L-0.690423 3.77731L-1.44614 4.50002L-0.690422 5.22273L0.000724399 4.50002ZM4.70624 4.97456L4.70624 3.97456L3.70624 3.97456L3.70624 4.97456L4.70624 4.97456ZM62 4.97456L62 5.97456L63 5.97455L63 4.97455L62 4.97456ZM62 4.02565L63 4.02565L63 3.02565L62 3.02565L62 4.02565ZM4.70624 4.02565L3.70624 4.02565L3.70623 5.02565L4.70624 5.02565L4.70624 4.02565ZM4.70625 5.00878e-06L5.70625 8.73605e-06L5.70626 -2.34L4.01511 -0.722707L4.70625 5.00878e-06ZM5.39737 8.27729L0.691871 3.77731L-0.690422 5.22273L4.01508 9.72272L5.39737 8.27729ZM3.70624 4.97456L3.70622 9L5.70622 9.00001L5.70624 4.97456L3.70624 4.97456ZM62 3.97456L4.70624 3.97456L4.70624 5.97456L62 5.97456L62 3.97456ZM61 4.02565L61 4.97456L63 4.97455L63 4.02565L61 4.02565ZM4.70624 5.02565L62 5.02565L62 3.02565L4.70624 3.02565L4.70624 5.02565ZM3.70625 1.2815e-06L3.70624 4.02565L5.70624 4.02566L5.70625 8.73605e-06L3.70625 1.2815e-06ZM0.691871 5.22273L5.3974 0.722717L4.01511 -0.722707L-0.690423 3.77731L0.691871 5.22273Z" fill="white" mask="url(#path-1-inside-1_138_635)"/>
</svg>
