<svg width="111.000000" height="53.000000" viewBox="0 0 111 53" fill="none" xmlns="http://www.w3.org/2000/svg" xmlns:xlink="http://www.w3.org/1999/xlink">
	<desc>
			Created with Pixso.
	</desc>
	<defs>
		<clipPath id="clip138_2676">
			<rect id="Gazprom-Logo-rus 2" width="111.000000" height="53.000000" fill="white" fill-opacity="0"/>
		</clipPath>
	</defs>
	<rect id="Gazprom-Logo-rus 2" width="111.000000" height="53.000000" fill="#FFFFFF" fill-opacity="0"/>
	<g clip-path="url(#clip138_2676)">
		<path id="path26" d="M34.71 34.31L41.61 34.31L41.61 36.5L38.33 36.5L38.33 51.89L34.71 51.89L34.71 34.31Z" fill="#FFFFFF" fill-opacity="0.600000" fill-rule="nonzero"/>
		<path id="path28" d="M45.71 45.29L46.33 36.5L46.53 36.5L47.15 45.29L45.71 45.29ZM41.7 51.89L45.24 51.89L45.58 47.22L47.28 47.22L47.62 51.89L51.16 51.89L49.27 34.31L43.59 34.31L41.7 51.89Z" fill="#FFFFFF" fill-opacity="0.600000" fill-rule="nonzero"/>
		<path id="path30" d="M56.34 45.74L56.34 49.05C56.34 49.5 56.7 49.63 56.9 49.63C57.25 49.63 57.48 49.36 57.48 49.05L57.48 44.96C57.48 44.41 57.38 43.81 56.03 43.81L54.56 43.81L54.56 41.88L56.09 41.88C57.11 41.88 57.48 41.64 57.48 40.56L57.48 37.08C57.48 36.77 57.25 36.5 56.9 36.5C56.7 36.5 56.34 36.61 56.34 37.08L56.34 39.94L52.72 39.94L52.72 37.45C52.72 36.22 52.87 34.31 55.41 34.31L58.4 34.31C60.94 34.31 61.1 36.22 61.1 37.45L61.1 40.26C61.1 42.18 59.72 42.7 58.64 42.65L58.64 42.83C61.07 42.77 61.1 44.59 61.1 45.21L61.1 48.75C61.1 49.99 60.94 51.89 58.4 51.89L55.41 51.89C52.87 51.89 52.72 49.99 52.72 48.75L52.72 45.74L56.34 45.74Z" fill="#FFFFFF" fill-opacity="0.600000" fill-rule="nonzero"/>
		<path id="path32" d="M63.48 34.31L71.86 34.31L71.86 51.89L68.24 51.89L68.24 36.5L67.1 36.5L67.1 51.89L63.48 51.89L63.48 34.31Z" fill="#FFFFFF" fill-opacity="0.600000" fill-rule="nonzero"/>
		<path id="path34" d="M77.85 43.98L77.85 36.5L78.33 36.5C78.71 36.5 78.99 36.82 78.99 37.38L78.99 43.1C78.99 43.66 78.71 43.98 78.33 43.98L77.85 43.98ZM74.23 51.89L77.85 51.89L77.85 45.91L79.93 45.91C82.45 45.91 82.61 44.01 82.61 42.77L82.61 37.45C82.61 36.22 82.45 34.31 79.93 34.31L74.23 34.31L74.23 51.89Z" fill="#FFFFFF" fill-opacity="0.600000" fill-rule="nonzero"/>
		<path id="path36" d="M89.75 49.05C89.75 49.36 89.51 49.63 89.17 49.63C88.96 49.63 88.61 49.5 88.61 49.05L88.61 37.08C88.61 36.61 88.96 36.5 89.17 36.5C89.51 36.5 89.75 36.77 89.75 37.08L89.75 49.05ZM84.99 48.75C84.99 49.99 85.15 51.89 87.67 51.89L90.68 51.89C93.2 51.89 93.37 49.99 93.37 48.75L93.37 37.45C93.37 36.22 93.2 34.31 90.68 34.31L87.67 34.31C85.15 34.31 84.99 36.22 84.99 37.45L84.99 48.75Z" fill="#FFFFFF" fill-opacity="0.600000" fill-rule="nonzero"/>
		<path id="path38" d="M105.15 34.31L109.86 34.31L109.86 51.89L106.25 51.89L106.25 40.87L106.11 40.87L104.24 51.89L101.35 51.89L99.49 40.87L99.36 40.87L99.36 51.89L95.74 51.89L95.74 34.31L100.44 34.31L102.8 46.68L105.15 34.31Z" fill="#FFFFFF" fill-opacity="0.600000" fill-rule="nonzero"/>
		<path id="path40" d="M30.02 10.26C28.91 5.55 26.14 1.72 25.75 1.1C25.15 1.98 22.93 5.36 21.81 9.11C20.58 13.31 20.4 17.02 20.82 20.67C21.24 24.33 22.83 28.1 22.83 28.1C23.68 30.06 24.95 32.17 25.77 33.21C26.98 31.68 29.76 27.13 30.63 21.19C31.11 17.87 31.13 14.98 30.02 10.26ZM25.75 32.03C25.21 31.04 24.36 29.15 24.28 26.21C24.26 23.38 25.43 20.95 25.77 20.44C26.08 20.95 27.08 23.06 27.2 25.96C27.28 28.79 26.32 31.02 25.75 32.03ZM29.7 18.26C29.66 20.07 29.44 21.97 29.16 23.11C29.26 21.15 29.01 18.39 28.55 16.23C28.09 14.08 26.78 10.48 25.73 8.82C24.77 10.41 23.58 13.52 22.96 16.22C22.33 18.91 22.31 22.18 22.31 23.17C22.14 22.34 21.73 19.39 21.85 16.43C21.94 14 22.53 11.47 22.85 10.32C24.08 6.47 25.47 4.01 25.73 3.62C25.99 4.01 27.74 7.05 28.65 10.24C29.56 13.42 29.74 16.48 29.7 18.26Z" fill="#FFFFFF" fill-opacity="0.600000" fill-rule="nonzero"/>
		<path id="path42" d="M27.63 34.31L19.21 34.31L19.21 39.8C19.22 39.8 19.22 39.79 19.23 39.79C21.22 37.85 24.43 37.85 26.42 39.79C28.41 41.7 28.41 44.83 26.42 46.76C26.41 46.78 26.4 46.78 26.39 46.79C26.38 46.79 26.37 46.81 26.36 46.82C24.38 48.72 21.8 49.67 19.21 49.67C16.61 49.67 14.01 48.72 12.03 46.79C8.53 43.4 8.12 38.14 10.79 34.31C11.14 33.79 11.56 33.3 12.03 32.84C14.01 30.91 16.61 29.95 19.21 29.95L19.21 16.75C9.22 16.75 1.13 24.61 1.13 34.31C1.13 44.01 9.22 51.88 19.21 51.88C24.42 51.88 29.11 49.73 32.41 46.32L32.41 34.31L27.63 34.31Z" fill="#FFFFFF" fill-opacity="0.600000" fill-rule="nonzero"/>
	</g>
</svg>
