<svg width="207.000000" height="62.000000" viewBox="0 0 207 62" fill="none" xmlns="http://www.w3.org/2000/svg" xmlns:xlink="http://www.w3.org/1999/xlink">
	<desc>
			Created with Pixso.
	</desc>
	<defs>
		<clipPath id="clip138_2648">
			<rect id="MegaFon_sign+logo_horiz_green_RU_(RGB) 2" width="207.000000" height="62.000000" fill="white" fill-opacity="0"/>
		</clipPath>
	</defs>
	<rect id="MegaFon_sign+logo_horiz_green_RU_(RGB) 2" width="207.000000" height="62.000000" fill="#FFFFFF" fill-opacity="0"/>
	<g clip-path="url(#clip138_2648)">
		<path id="Vector" d="M33.15 15.61L33.15 31.59C33.15 32.32 32.6 32.87 31.86 32.87L29.93 32.87C29.84 32.87 29.75 32.96 29.75 33.05L29.75 46.47C30.21 46.47 30.67 46.56 31.22 46.56C39.85 46.56 46.83 39.62 46.83 31.04C46.83 23.1 40.86 16.52 33.15 15.61ZM32.78 39.53C31.68 39.53 30.85 38.62 30.85 37.62C30.85 36.52 31.77 35.7 32.78 35.7C33.88 35.7 34.71 36.61 34.71 37.62C34.8 38.62 33.88 39.53 32.78 39.53ZM37.37 39.53C36.27 39.53 35.44 38.62 35.44 37.62C35.44 36.52 36.36 35.7 37.37 35.7C38.47 35.7 39.3 36.61 39.3 37.62C39.3 38.62 38.47 39.53 37.37 39.53ZM41.96 39.53C40.86 39.53 40.04 38.62 40.04 37.62C40.04 36.52 40.95 35.7 41.96 35.7C43.07 35.7 43.89 36.61 43.89 37.62C43.89 38.62 43.07 39.53 41.96 39.53Z" fill="#FFFFFF" fill-opacity="0.600000" fill-rule="nonzero"/>
		<path id="Vector" d="M31.22 15.52C22.59 15.52 15.61 22.46 15.61 31.04C15.61 38.53 20.84 44.74 27.91 46.2L27.91 32.23C27.91 31.59 28.46 31.04 29.11 30.95L29.75 30.95L31.04 30.95C31.13 30.95 31.22 30.86 31.22 30.77L31.22 15.52ZM28.19 28.3C27.09 28.3 26.26 27.39 26.26 26.38C26.26 25.29 27.18 24.47 28.19 24.47C29.29 24.47 30.12 25.38 30.12 26.38C30.12 27.39 29.29 28.3 28.19 28.3Z" fill="#FFFFFF" fill-opacity="0.600000" fill-rule="nonzero"/>
		<path id="Vector" d="M187.53 24.01L187.53 29.85L179.63 29.85L179.63 24.01L175.68 24.01L175.68 39.53L179.63 39.53L179.63 33.23L187.53 33.23L187.53 39.53L191.38 39.53L191.38 24.01L187.53 24.01Z" fill="#FFFFFF" fill-opacity="0.600000" fill-rule="nonzero"/>
		<path id="Vector" d="M122.51 25.74C121.86 24.37 120.58 23.64 119.29 23.64C118.01 23.64 116.72 24.37 116.08 25.74L109.74 39.53L113.87 39.53L115.25 36.25L123.33 36.25L124.71 39.53L128.84 39.53L122.51 25.74ZM116.54 33.14L118.92 27.48C119.02 27.3 119.11 27.3 119.2 27.3C119.29 27.3 119.48 27.3 119.48 27.48L121.86 33.14L116.54 33.14Z" fill="#FFFFFF" fill-opacity="0.600000" fill-rule="nonzero"/>
		<path id="Vector" d="M76.04 21.18C74.2 21.18 73 22.18 72.18 24.1L67.13 35.79L62.08 24.1C61.25 22.18 60.06 21.18 58.22 21.18C56.47 21.18 54.73 22.37 54.73 25.01L54.73 39.44L58.59 39.44L58.59 25.47L63.73 37.07C64.37 38.71 65.57 39.72 67.13 39.72C68.78 39.72 69.88 38.71 70.53 37.07L75.67 25.47L75.67 39.53L79.53 39.53L79.53 25.11C79.53 22.46 77.78 21.18 76.04 21.18Z" fill="#FFFFFF" fill-opacity="0.600000" fill-rule="nonzero"/>
		<path id="Vector" d="M86.41 36.25C86.23 36.25 86.05 36.06 86.05 35.88L86.05 33.14L95.78 33.14L95.78 29.94L86.05 29.94L86.05 27.57C86.05 27.39 86.23 27.21 86.41 27.21L96.06 27.21L96.06 23.92L84.48 23.92C83.11 23.92 82.19 25.01 82.19 26.2L82.19 37.07C82.19 38.25 83.2 39.35 84.48 39.35L96.06 39.35L96.06 36.06L86.41 36.06L86.41 36.25Z" fill="#FFFFFF" fill-opacity="0.600000" fill-rule="nonzero"/>
		<path id="Vector" d="M102.58 39.53L102.58 27.66C102.58 27.48 102.76 27.3 102.94 27.3L112.59 27.3L112.59 24.01L101.02 24.01C99.64 24.01 98.72 25.11 98.72 26.29L98.72 39.44L102.58 39.44L102.58 39.53Z" fill="#FFFFFF" fill-opacity="0.600000" fill-rule="nonzero"/>
		<path id="Vector" d="M173.11 31.77C173.11 26.38 170.72 23.83 164.84 23.83L163.46 23.83C157.59 23.83 155.2 26.38 155.2 31.77C155.2 37.07 157.59 39.72 163.46 39.72L164.75 39.72C170.72 39.62 173.11 37.07 173.11 31.77ZM164.75 36.43L163.46 36.43C160.25 36.43 158.96 34.97 158.96 31.77C158.96 28.67 160.07 27.11 163.46 27.11L164.75 27.11C168.06 27.11 169.25 28.67 169.25 31.77C169.25 34.97 168.06 36.43 164.75 36.43Z" fill="#FFFFFF" fill-opacity="0.600000" fill-rule="nonzero"/>
		<path id="Vector" d="M144.36 21.54L136.65 21.54C130.86 21.54 128.57 24.47 128.57 29.49C128.57 30.31 128.66 31.04 128.75 31.68C129.39 35.24 131.5 37.43 136.92 37.43L138.67 37.43L138.67 39.44L142.53 39.44L142.53 37.43L144.18 37.43C149.6 37.43 151.71 35.24 152.35 31.68C152.44 31.04 152.54 30.31 152.54 29.49C152.44 24.47 150.06 21.54 144.36 21.54ZM138.49 34.24L136.74 34.24C134.08 34.24 133.16 33.23 132.61 31.68C132.42 31.13 132.42 30.31 132.42 29.49C132.42 26.2 133.99 24.83 136.19 24.83L138.58 24.83L138.58 34.24L138.49 34.24ZM148.4 31.77C147.85 33.32 146.84 34.33 144.27 34.33L142.53 34.33L142.53 24.83L144.91 24.83C147.12 24.83 148.68 26.2 148.68 29.49C148.59 30.4 148.59 31.13 148.4 31.77Z" fill="#FFFFFF" fill-opacity="0.600000" fill-rule="nonzero"/>
	</g>
</svg>
